<svg xmlns="http://www.w3.org/2000/svg" viewBox="0 0 73.74 8.72"><defs><style>.cls-1{fill:#4238d8;}.cls-2{fill:#7bd9b6;}</style></defs><title>logo</title><g id="Capa_2" data-name="Capa 2"><g id="Capa_1-2" data-name="Capa 1"><path class="cls-1" d="M6.86.47A3.2,3.2,0,0,1,8.22,1.81a4.08,4.08,0,0,1,.47,2,6,6,0,0,1-.1,1,4.84,4.84,0,0,1-.83,2,4.25,4.25,0,0,1-1.6,1.37A4.82,4.82,0,0,1,4,8.72a4.57,4.57,0,0,1-2.14-.46A3.3,3.3,0,0,1,.46,6.94,4.08,4.08,0,0,1,0,5,5.09,5.09,0,0,1,.1,3.88a4.78,4.78,0,0,1,.83-2A4.45,4.45,0,0,1,2.54.49,4.89,4.89,0,0,1,4.76,0,4.46,4.46,0,0,1,6.86.47ZM3.32,2.93a2.31,2.31,0,0,0-.63,1.31,2.76,2.76,0,0,0,0,.51A1.5,1.5,0,0,0,3,5.84a1.45,1.45,0,0,0,1.12.4,1.7,1.7,0,0,0,1.24-.48A2.26,2.26,0,0,0,6,4.48a3.07,3.07,0,0,0,0-.53,1.53,1.53,0,0,0-.38-1.1,1.47,1.47,0,0,0-1.11-.39A1.76,1.76,0,0,0,3.32,2.93Z"/><path class="cls-1" d="M11.84,6.62h2.57l-.35,2H8.83L10.32.14H13Z"/><path class="cls-1" d="M19.06.14l-1.49,8.5H14.9L16.39.14Z"/><path class="cls-1" d="M30.47.14,29,8.64H26.33l.74-4.25L25,8.64H22.74L22.18,4.4l-.75,4.24H18.77L20.26.14h3.26l1,5.09L27.22.14Z"/><path class="cls-1" d="M33.31,5.94l-.47,2.7H30.18L31.67.14h3.72a3.06,3.06,0,0,1,2.07.62,2.06,2.06,0,0,1,.71,1.68,3.89,3.89,0,0,1-.06.62,3.29,3.29,0,0,1-.63,1.46,3.48,3.48,0,0,1-1.28,1,4.24,4.24,0,0,1-1.83.38Zm2.1-2.88a1,1,0,0,0,0-.19c0-.39-.23-.59-.7-.59H34l-.28,1.56h.76A.87.87,0,0,0,35.41,3.06Z"/><path class="cls-1" d="M42.12.14l-1.49,8.5H38L39.46.14Z"/><path class="cls-1" d="M47.51,7.36H44.68L44,8.64h-2.8l4.6-8.5H48.9l1.61,8.5H47.7Zm-.3-2L46.86,3,45.67,5.35Z"/><path class="cls-2" d="M58.74,6.64a3.51,3.51,0,0,1-1.52,1.48,5.14,5.14,0,0,1-2.41.52H52.13V.18h2.68a5.26,5.26,0,0,1,2.41.51,3.46,3.46,0,0,1,1.52,1.46,4.73,4.73,0,0,1,.51,2.25A4.66,4.66,0,0,1,58.74,6.64Zm-1.48.16a3.15,3.15,0,0,0,.88-2.4A3.21,3.21,0,0,0,57.27,2a3.49,3.49,0,0,0-2.54-.86H53.22V7.66h1.51A3.48,3.48,0,0,0,57.26,6.8Z"/><path class="cls-2" d="M61.82,1.07V4H65V4.8H61.82v3H65.4v.89H60.73V.18H65.4v.89Z"/><path class="cls-2" d="M67.36.18l2.58,7.25L72.55.18h1.19L70.63,8.64H69.25L66.16.18Z"/></g></g></svg>